<?xml version="1.0" encoding="UTF-8"?>
<svg id="Layer_1" data-name="Layer 1" xmlns="http://www.w3.org/2000/svg" viewBox="0 0 428.75 131.33">
  <defs>
    <style>
      .cls-1 {
        fill: #fff;
      }
    </style>
  </defs>
  <g>
    <g>
      <path class="cls-1" d="M137.28,23.65c1.61-.92,3.45-1.39,5.52-1.39v8.16h-2.05c-2.44,0-4.28.57-5.52,1.72-1.24,1.15-1.86,3.15-1.86,5.99v15.32h-7.77v-30.75h7.77v4.77c1-1.63,2.3-2.9,3.91-3.83Z"/>
      <path class="cls-1" d="M171.55,23.79c1.81,1.02,3.23,2.52,4.25,4.5,1.02,1.98,1.53,4.36,1.53,7.13v18.04h-7.77v-16.98c0-2.44-.61-4.32-1.83-5.63-1.22-1.31-2.89-1.97-5-1.97s-3.84.66-5.08,1.97c-1.24,1.31-1.86,3.19-1.86,5.63v16.98h-7.77V12.38h7.77v14.15c1-1.33,2.33-2.38,4-3.14,1.67-.76,3.51-1.14,5.55-1.14,2.33,0,4.4.51,6.22,1.53Z"/>
      <path class="cls-1" d="M202.91,53.45l-10.43-13.1v13.1h-7.77V12.38h7.77v23.36l10.32-13.04h10.1l-13.54,15.43,13.65,15.32h-10.1Z"/>
    </g>
    <g>
      <path class="cls-1" d="M137.5,74.47c1.76-.94,3.76-1.42,6.02-1.42,2.63,0,5,.65,7.13,1.94,2.13,1.3,3.81,3.14,5.05,5.52,1.24,2.39,1.86,5.15,1.86,8.3s-.62,5.93-1.86,8.35c-1.24,2.42-2.92,4.3-5.05,5.63-2.13,1.33-4.5,2-7.13,2-2.26,0-4.25-.46-5.97-1.39-1.72-.92-3.12-2.09-4.19-3.5v19.04h-7.77v-45.4h7.77v4.44c1-1.41,2.38-2.58,4.13-3.52ZM148.49,84.02c-.76-1.35-1.76-2.38-3-3.08-1.24-.7-2.58-1.05-4.02-1.05s-2.73.36-3.97,1.08c-1.24.72-2.24,1.77-3,3.14-.76,1.37-1.14,2.98-1.14,4.83s.38,3.46,1.14,4.83c.76,1.37,1.76,2.41,3,3.14,1.24.72,2.56,1.08,3.97,1.08s2.78-.37,4.02-1.11c1.24-.74,2.24-1.79,3-3.16.76-1.37,1.14-3,1.14-4.88s-.38-3.45-1.14-4.8Z"/>
      <path class="cls-1" d="M174.91,74.5c1.61-.92,3.45-1.39,5.52-1.39v8.16h-2.05c-2.44,0-4.28.57-5.52,1.72-1.24,1.15-1.86,3.15-1.86,5.99v15.32h-7.77v-30.75h7.77v4.77c1-1.63,2.3-2.9,3.91-3.83Z"/>
      <path class="cls-1" d="M191.31,102.83c-2.37-1.31-4.23-3.17-5.58-5.58-1.35-2.4-2.03-5.18-2.03-8.32s.69-5.92,2.08-8.32c1.39-2.4,3.28-4.26,5.69-5.58,2.41-1.31,5.09-1.97,8.05-1.97s5.64.66,8.05,1.97c2.41,1.31,4.3,3.17,5.69,5.58,1.39,2.41,2.08,5.18,2.08,8.32s-.71,5.92-2.14,8.32c-1.42,2.41-3.35,4.26-5.77,5.58-2.42,1.31-5.13,1.97-8.13,1.97s-5.62-.66-7.99-1.97ZM203.27,97c1.24-.68,2.23-1.71,2.97-3.08.74-1.37,1.11-3.03,1.11-5,0-2.92-.77-5.17-2.3-6.74-1.54-1.57-3.41-2.36-5.63-2.36s-4.08.79-5.58,2.36c-1.5,1.57-2.25,3.82-2.25,6.74s.73,5.17,2.19,6.74c1.46,1.57,3.3,2.36,5.52,2.36,1.41,0,2.73-.34,3.97-1.03Z"/>
      <path class="cls-1" d="M232.96,74.47c1.76-.94,3.76-1.42,6.02-1.42,2.63,0,5,.65,7.13,1.94,2.13,1.3,3.81,3.14,5.05,5.52,1.24,2.39,1.86,5.15,1.86,8.3s-.62,5.93-1.86,8.35c-1.24,2.42-2.92,4.3-5.05,5.63-2.13,1.33-4.5,2-7.13,2-2.26,0-4.25-.46-5.97-1.39-1.72-.92-3.12-2.09-4.19-3.5v19.04h-7.77v-45.4h7.77v4.44c1-1.41,2.38-2.58,4.13-3.52ZM243.94,84.02c-.76-1.35-1.76-2.38-3-3.08-1.24-.7-2.58-1.05-4.02-1.05s-2.73.36-3.97,1.08c-1.24.72-2.24,1.77-3,3.14-.76,1.37-1.14,2.98-1.14,4.83s.38,3.46,1.14,4.83c.76,1.37,1.76,2.41,3,3.14,1.24.72,2.56,1.08,3.97,1.08s2.78-.37,4.02-1.11c1.24-.74,2.24-1.79,3-3.16.76-1.37,1.14-3,1.14-4.88s-.38-3.45-1.14-4.8Z"/>
      <path class="cls-1" d="M287.04,91.26h-22.48c.18,2.22.96,3.96,2.33,5.22,1.37,1.26,3.05,1.89,5.05,1.89,2.89,0,4.94-1.24,6.16-3.72h8.38c-.89,2.96-2.59,5.39-5.11,7.3-2.52,1.91-5.61,2.86-9.27,2.86-2.96,0-5.61-.66-7.96-1.97-2.35-1.31-4.18-3.17-5.49-5.58-1.31-2.4-1.97-5.18-1.97-8.32s.65-5.97,1.94-8.38c1.29-2.4,3.11-4.25,5.44-5.55,2.33-1.29,5.01-1.94,8.05-1.94s5.54.63,7.85,1.89c2.31,1.26,4.11,3.04,5.38,5.36,1.28,2.31,1.92,4.97,1.92,7.96,0,1.11-.08,2.11-.22,3ZM279.21,86.04c-.04-2-.76-3.6-2.16-4.8-1.41-1.2-3.13-1.8-5.16-1.8-1.92,0-3.54.58-4.86,1.75-1.31,1.17-2.12,2.78-2.41,4.86h14.6Z"/>
      <path class="cls-1" d="M304.6,74.5c1.61-.92,3.45-1.39,5.52-1.39v8.16h-2.05c-2.44,0-4.28.57-5.52,1.72-1.24,1.15-1.86,3.15-1.86,5.99v15.32h-7.77v-30.75h7.77v4.77c1-1.63,2.3-2.9,3.91-3.83Z"/>
      <path class="cls-1" d="M324.39,79.94v14.87c0,1.04.25,1.79.75,2.25.5.46,1.34.69,2.53.69h3.61v6.55h-4.88c-6.55,0-9.82-3.18-9.82-9.55v-14.82h-3.66v-6.38h3.66v-7.6h7.83v7.6h6.88v6.38h-6.88Z"/>
      <path class="cls-1" d="M337.4,68.59c-.91-.87-1.36-1.95-1.36-3.25s.45-2.38,1.36-3.25c.91-.87,2.04-1.3,3.41-1.3s2.51.44,3.41,1.3c.91.87,1.36,1.95,1.36,3.25s-.45,2.38-1.36,3.25c-.91.87-2.04,1.3-3.41,1.3s-2.51-.43-3.41-1.3ZM344.64,73.55v30.75h-7.77v-30.75h7.77Z"/>
      <path class="cls-1" d="M380.66,91.26h-22.48c.18,2.22.96,3.96,2.33,5.22,1.37,1.26,3.05,1.89,5.05,1.89,2.89,0,4.94-1.24,6.16-3.72h8.38c-.89,2.96-2.59,5.39-5.11,7.3-2.52,1.91-5.61,2.86-9.27,2.86-2.96,0-5.61-.66-7.96-1.97-2.35-1.31-4.18-3.17-5.49-5.58-1.31-2.4-1.97-5.18-1.97-8.32s.65-5.97,1.94-8.38c1.29-2.4,3.11-4.25,5.44-5.55,2.33-1.29,5.01-1.94,8.05-1.94s5.54.63,7.85,1.89c2.31,1.26,4.11,3.04,5.38,5.36,1.28,2.31,1.92,4.97,1.92,7.96,0,1.11-.08,2.11-.22,3ZM372.84,86.04c-.04-2-.76-3.6-2.16-4.8-1.41-1.2-3.13-1.8-5.16-1.8-1.92,0-3.54.58-4.86,1.75-1.31,1.17-2.12,2.78-2.41,4.86h14.6Z"/>
      <path class="cls-1" d="M391.54,103.44c-2-.91-3.58-2.14-4.75-3.69-1.17-1.55-1.8-3.27-1.92-5.16h7.83c.15,1.18.73,2.16,1.75,2.94,1.02.78,2.28,1.17,3.8,1.17s2.64-.3,3.47-.89c.83-.59,1.25-1.35,1.25-2.28,0-1-.51-1.75-1.53-2.25-1.02-.5-2.64-1.04-4.86-1.64-2.29-.55-4.17-1.13-5.63-1.72-1.46-.59-2.72-1.5-3.77-2.72-1.05-1.22-1.58-2.87-1.58-4.94,0-1.7.49-3.26,1.47-4.66.98-1.41,2.39-2.52,4.22-3.33,1.83-.81,3.99-1.22,6.47-1.22,3.66,0,6.58.92,8.77,2.75,2.18,1.83,3.39,4.3,3.61,7.41h-7.44c-.11-1.22-.62-2.19-1.53-2.91-.91-.72-2.12-1.08-3.63-1.08-1.41,0-2.49.26-3.25.78-.76.52-1.14,1.24-1.14,2.16,0,1.04.52,1.82,1.55,2.36,1.04.54,2.65,1.08,4.83,1.64,2.22.56,4.05,1.13,5.49,1.72,1.44.59,2.69,1.51,3.75,2.75,1.05,1.24,1.6,2.88,1.64,4.91,0,1.78-.49,3.37-1.47,4.77-.98,1.41-2.39,2.51-4.22,3.3-1.83.8-3.97,1.19-6.41,1.19s-4.77-.45-6.77-1.36Z"/>
    </g>
  </g>
  <path class="cls-1" d="M80.21,92.62l27.86-33.69c1.13-1.36.16-3.43-1.61-3.43h-8.52c-.62,0-1.22-.28-1.61-.76l-28.55-34.53c-.4-.48-.99-.76-1.61-.76h-17.01c-1.77,0-2.74,2.06-1.61,3.43l9.39,11.36c1.13,1.36.16,3.43-1.61,3.43h-7.02c-.62,0-1.22.28-1.61.76l-27.86,33.69c-1.13,1.36-.16,3.43,1.61,3.43h7.58c.62,0,1.22.28,1.61.76l28.79,34.82c.4.48.99.76,1.61.76h17.01c1.77,0,2.74-2.06,1.61-3.43l-9.63-11.65c-1.13-1.36-.16-3.43,1.61-3.43h7.95c.62,0,1.22-.28,1.61-.76ZM42.54,70.58l20.6-24.92c.84-1.01,2.39-1.01,3.23,0l9.02,10.91c.4.48.99.76,1.61.76h5.5c1.77,0,2.74,2.06,1.61,3.43l-20.83,25.19c-.84,1.01-2.39,1.01-3.23,0l-9.25-11.18c-.4-.48-.99-.76-1.61-.76h-5.04c-1.77,0-2.74-2.06-1.61-3.43Z"/>
</svg>